<svg width="40" height="40" viewBox="0 0 40 40" fill="none" xmlns="http://www.w3.org/2000/svg">
<path d="M18.2 4.78C18.3834 4.46526 18.6461 4.20412 18.962 4.02262C19.2778 3.84112 19.6357 3.74561 20 3.74561C20.3643 3.74561 20.7222 3.84112 21.038 4.02262C21.3539 4.20412 21.6166 4.46526 21.8 4.78L26.4583 12.7767L35.505 14.7367C35.8609 14.814 36.1902 14.9832 36.4603 15.2276C36.7303 15.4719 36.9316 15.7827 37.0441 16.129C37.1566 16.4754 37.1763 16.8452 37.1013 17.2015C37.0263 17.5579 36.8592 17.8884 36.6167 18.16L30.45 25.0617L31.3833 34.27C31.4202 34.6326 31.3612 34.9985 31.2124 35.3312C31.0636 35.6639 30.8301 35.9517 30.5352 36.1659C30.2404 36.3801 29.8945 36.5133 29.5321 36.552C29.1697 36.5907 28.8035 36.5337 28.47 36.3867L20 32.6533L11.53 36.3867C11.1965 36.5337 10.8303 36.5907 10.4679 36.552C10.1055 36.5133 9.75964 36.3801 9.46479 36.1659C9.16994 35.9517 8.93644 35.6639 8.78762 35.3312C8.6388 34.9985 8.57985 34.6326 8.61667 34.27L9.55001 25.0617L3.38334 18.1617C3.14039 17.89 2.97293 17.5594 2.8977 17.2029C2.82246 16.8463 2.84207 16.4762 2.95458 16.1296C3.06708 15.783 3.26855 15.4719 3.53885 15.2275C3.80915 14.9831 4.13884 14.8138 4.49501 14.7367L13.5417 12.7767L18.2 4.78Z" fill="white"/>
</svg>
