<svg width="62" height="79" viewBox="0 0 62 79" fill="none" xmlns="http://www.w3.org/2000/svg">
<path d="M40.2 4.78C40.3834 4.46526 40.6461 4.20412 40.962 4.02262C41.2778 3.84112 41.6357 3.74561 42 3.74561C42.3643 3.74561 42.7222 3.84112 43.038 4.02262C43.3539 4.20412 43.6166 4.46526 43.8 4.78L48.4583 12.7767L57.505 14.7367C57.8609 14.814 58.1902 14.9832 58.4603 15.2276C58.7303 15.4719 58.9316 15.7827 59.0441 16.129C59.1566 16.4754 59.1763 16.8452 59.1013 17.2015C59.0263 17.5579 58.8592 17.8884 58.6167 18.16L52.45 25.0617L53.3833 34.27C53.4202 34.6326 53.3612 34.9985 53.2124 35.3312C53.0636 35.6639 52.8301 35.9517 52.5352 36.1659C52.2404 36.3801 51.8945 36.5133 51.5321 36.552C51.1697 36.5907 50.8035 36.5337 50.47 36.3867L42 32.6533L33.53 36.3867C33.1965 36.5337 32.8303 36.5907 32.4679 36.552C32.1055 36.5133 31.7596 36.3801 31.4648 36.1659C31.1699 35.9517 30.9364 35.6639 30.7876 35.3312C30.6388 34.9985 30.5799 34.6326 30.6167 34.27L31.55 25.0617L25.3833 18.1617C25.1404 17.89 24.9729 17.5594 24.8977 17.2029C24.8225 16.8463 24.8421 16.4762 24.9546 16.1296C25.0671 15.783 25.2685 15.4719 25.5388 15.2275C25.8092 14.9831 26.1388 14.8138 26.495 14.7367L35.5417 12.7767L40.2 4.78Z" fill="white"/>
<path d="M13.65 52.5851C13.7876 52.3491 13.9846 52.1532 14.2215 52.0171C14.4584 51.881 14.7268 51.8093 15 51.8093C15.2732 51.8093 15.5417 51.881 15.7785 52.0171C16.0154 52.1532 16.2125 52.3491 16.35 52.5851L19.8438 58.5826L26.6288 60.0526C26.8957 60.1106 27.1427 60.2376 27.3452 60.4208C27.5478 60.604 27.6987 60.8371 27.7831 61.0969C27.8674 61.3567 27.8822 61.634 27.826 61.9013C27.7697 62.1685 27.6444 62.4164 27.4625 62.6201L22.8375 67.7964L23.5375 74.7026C23.5651 74.9746 23.5209 75.249 23.4093 75.4985C23.2977 75.748 23.1226 75.9639 22.9014 76.1246C22.6803 76.2852 22.4209 76.3851 22.1491 76.4141C21.8773 76.4432 21.6026 76.4004 21.3525 76.2901L15 73.4901L8.64751 76.2901C8.39741 76.4004 8.12275 76.4432 7.85095 76.4141C7.57916 76.3851 7.31974 76.2852 7.0986 76.1246C6.87746 75.9639 6.70234 75.748 6.59072 75.4985C6.47911 75.249 6.4349 74.9746 6.46251 74.7026L7.16251 67.7964L2.53751 62.6214C2.3553 62.4177 2.22971 62.1697 2.17328 61.9023C2.11685 61.6348 2.13156 61.3573 2.21594 61.0973C2.30032 60.8373 2.45142 60.6041 2.65414 60.4207C2.85687 60.2374 3.10414 60.1105 3.37126 60.0526L10.1563 58.5826L13.65 52.5851Z" fill="white"/>
</svg>
